<?xml version="1.0" encoding="UTF-8"?>
<!DOCTYPE svg PUBLIC "-//W3C//DTD SVG 1.1//EN" "http://www.w3.org/Graphics/SVG/1.1/DTD/svg11.dtd">
<!-- Creator: CorelDRAW X7 -->
<svg xmlns="http://www.w3.org/2000/svg" xml:space="preserve" width="44.2152mm" height="9.514mm" version="1.1" style="shape-rendering:geometricPrecision; text-rendering:geometricPrecision; image-rendering:optimizeQuality; fill-rule:evenodd; clip-rule:evenodd"
viewBox="0 0 1922 414"
 xmlns:xlink="http://www.w3.org/1999/xlink">
 <defs>
  <style type="text/css">
   <![CDATA[
    .fil0 {fill:#FEFEFE;fill-rule:nonzero}
   ]]>
  </style>
 </defs>
 <g id="Layer_x0020_1">
  <metadata id="CorelCorpID_0Corel-Layer"/>
  <path class="fil0" d="M373 0c-1,134 -1,269 -1,403 61,-27 120,-41 146,-105 16,-60 15,-120 0,-182 -23,-72 -84,-88 -145,-116z"/>
  <path class="fil0" d="M686 160l55 0 -20 -72c-1,-3 -2,-6 -3,-11 -1,-5 -3,-11 -4,-19 -2,6 -3,11 -4,16 -1,4 -2,9 -3,14l-21 72zm-77 82l70 -219 69 0 70 219 -55 0 -10 -39 -79 0 -10 39 -55 0z"/>
  <path id="1" class="fil0" d="M837 242l0 -219 43 0c31,0 53,1 66,4 13,4 25,9 35,16 13,10 22,23 29,38 7,15 10,32 10,51 0,20 -3,37 -10,52 -7,15 -16,28 -29,37 -10,8 -21,13 -34,16 -12,3 -32,5 -58,5l-9 0 -43 0zm55 -49l9 0c22,0 38,-5 48,-15 10,-9 15,-25 15,-46 0,-21 -5,-36 -15,-46 -10,-9 -26,-14 -48,-14l-9 0 0 121z"/>
  <path id="2" class="fil0" d="M1064 171c8,10 16,18 24,23 8,5 16,7 24,7 7,0 13,-2 18,-6 5,-5 7,-10 7,-17 0,-7 -2,-13 -6,-16 -4,-4 -13,-9 -28,-13 -20,-5 -34,-13 -42,-22 -8,-10 -12,-22 -12,-38 0,-21 6,-39 19,-52 13,-13 30,-20 51,-20 11,0 21,2 31,5 10,4 20,8 29,15l-17 43c-7,-6 -13,-10 -20,-13 -6,-3 -13,-5 -19,-5 -7,0 -12,2 -17,6 -4,3 -6,8 -6,13 0,5 2,10 6,13 3,3 10,7 21,9l2 1c23,7 38,14 45,22 5,5 8,12 11,19 2,8 3,16 3,25 0,24 -7,42 -21,56 -14,15 -33,22 -56,22 -14,0 -27,-3 -39,-8 -11,-5 -23,-13 -33,-25l25 -44z"/>
  <polygon id="3" class="fil0" points="1219,242 1219,23 1343,23 1343,71 1273,71 1273,109 1339,109 1339,156 1273,156 1273,193 1343,193 1343,242 "/>
  <path id="4" class="fil0" d="M1380 242l0 -219 53 0 77 112c1,3 4,7 7,14 4,7 7,15 11,25 -1,-9 -2,-17 -2,-24 -1,-7 -1,-14 -1,-19l0 -108 53 0 0 219 -53 0 -76 -113c-2,-3 -4,-7 -8,-14 -3,-7 -7,-15 -11,-25 1,9 2,18 3,25 0,7 0,13 0,19l0 108 -53 0z"/>
  <path id="5" class="fil0" d="M1631 171c8,10 16,18 24,23 8,5 16,7 24,7 7,0 13,-2 18,-6 5,-5 7,-10 7,-17 0,-7 -2,-13 -6,-16 -4,-4 -13,-9 -28,-13 -20,-5 -34,-13 -42,-22 -8,-10 -12,-22 -12,-38 0,-21 6,-39 19,-52 13,-13 30,-20 51,-20 11,0 21,2 31,5 10,4 20,8 29,15l-17 43c-7,-6 -13,-10 -20,-13 -6,-3 -13,-5 -19,-5 -7,0 -12,2 -17,6 -4,3 -6,8 -6,13 0,5 2,10 6,13 3,3 10,7 21,9l2 1c23,7 38,14 45,22 5,5 8,12 11,19 2,8 3,16 3,25 0,24 -7,42 -21,56 -14,15 -33,22 -56,22 -14,0 -27,-3 -39,-8 -11,-5 -23,-13 -33,-25l25 -44z"/>
  <polygon id="6" class="fil0" points="1786,242 1786,23 1910,23 1910,71 1840,71 1840,109 1906,109 1906,156 1840,156 1840,193 1910,193 1910,242 "/>
  <path class="fil0" d="M609 383l0 -107 29 0c10,0 19,1 27,4 7,3 14,7 19,12 5,5 9,11 12,17 2,7 4,14 4,22 -1,8 -2,15 -5,21 -3,7 -7,13 -13,17 -5,5 -11,8 -18,11 -6,2 -13,3 -20,3l-35 0zm11 -98l0 88 16 0c15,0 27,-3 37,-10 10,-7 15,-18 16,-32 0,-6 -1,-12 -3,-18 -2,-5 -5,-10 -10,-14 -4,-4 -9,-8 -16,-10 -6,-2 -13,-4 -22,-4l-18 0z"/>
  <path id="1" class="fil0" d="M722 343c0,-6 1,-12 3,-17 3,-5 6,-10 10,-13 4,-4 8,-6 13,-8 5,-2 10,-3 15,-3 6,0 13,1 19,5 7,3 12,8 16,15 4,6 6,14 6,23l0 2 -72 0c1,6 3,11 6,15 3,4 7,8 11,10 5,2 9,3 13,3 4,0 8,-1 12,-3 4,-1 7,-3 10,-6 3,-3 6,-6 7,-9l11 0c-2,6 -6,11 -10,16 -4,4 -9,7 -14,9 -5,2 -11,3 -16,3 -7,0 -14,-2 -20,-6 -6,-3 -11,-8 -15,-14 -4,-7 -5,-14 -5,-22zm72 -5c-1,-5 -3,-9 -6,-13 -3,-4 -7,-7 -11,-9 -4,-3 -9,-4 -14,-4 -7,0 -12,2 -17,5 -5,3 -8,7 -10,11 -2,4 -3,7 -4,10l62 0z"/>
  <path id="2" class="fil0" d="M825 327c0,-1 0,-2 0,-3 0,-5 1,-9 3,-12 3,-3 5,-6 9,-7 3,-2 7,-3 10,-3 3,0 5,1 8,1 3,1 5,3 7,4 2,2 4,4 6,7 1,3 2,6 2,9l-11 0c0,-3 -1,-6 -4,-8 -2,-2 -5,-3 -8,-3 -3,0 -5,1 -8,3 -2,2 -4,5 -4,8 0,1 0,1 1,2 0,1 0,2 0,2 1,3 3,5 7,7 5,2 9,3 13,5 5,2 8,4 11,7 3,3 5,8 5,14 0,1 0,2 -1,4 0,5 -2,9 -4,12 -3,3 -6,5 -10,7 -3,1 -7,2 -10,2 -5,0 -9,-1 -13,-3 -4,-2 -7,-5 -9,-9 -2,-4 -3,-8 -3,-13l11 0c0,4 1,8 4,11 3,3 7,4 10,4 4,0 7,-2 10,-4 3,-3 4,-6 4,-10 0,-3 -1,-6 -3,-8 -2,-3 -6,-5 -10,-6 -6,-2 -11,-4 -16,-7 -4,-3 -6,-7 -7,-13z"/>
  <path id="3" class="fil0" d="M894 383l0 -79 11 0 0 79 -11 0zm0 -89l0 -18 11 0 0 18 -11 0z"/>
  <path id="4" class="fil0" d="M930 343c0,-8 2,-15 6,-22 4,-6 9,-11 15,-14 6,-3 12,-5 18,-5 5,0 10,1 14,2 5,1 8,3 12,6 3,3 6,6 7,10l0 -16 11 0 0 72c0,7 -2,12 -4,17 -2,4 -5,8 -8,11 -4,3 -8,6 -13,7 -5,2 -9,3 -15,3 -4,0 -8,-1 -13,-2 -4,-1 -8,-3 -12,-6 -4,-2 -7,-5 -9,-9 -3,-3 -5,-7 -6,-12l10 0c3,6 7,11 12,14 6,3 12,5 18,5 5,0 10,-1 14,-4 5,-2 9,-5 11,-9 3,-4 4,-9 4,-15l0 -9c-6,12 -16,18 -31,18 -5,0 -9,-1 -14,-3 -5,-2 -10,-4 -14,-8 -4,-3 -7,-8 -9,-13 -3,-5 -4,-11 -4,-18zm11 -2c0,7 1,13 4,18 3,5 6,9 11,11 5,3 10,5 15,5 5,0 9,-1 14,-4 5,-2 9,-6 12,-10 4,-5 5,-12 5,-19 0,-4 0,-7 -2,-11 -2,-3 -4,-7 -7,-9 -3,-3 -6,-5 -10,-7 -4,-2 -8,-3 -13,-3 -7,1 -13,3 -18,6 -4,4 -7,8 -9,13 -1,4 -2,8 -2,10z"/>
  <path id="5" class="fil0" d="M1040 383l0 -79 11 0 0 12c2,-5 6,-8 10,-10 5,-3 10,-4 15,-4 4,0 9,1 13,3 4,1 8,3 11,7 3,3 6,6 8,11 2,5 3,10 3,15l0 45 -11 0 0 -45c0,-5 -1,-10 -3,-14 -3,-4 -6,-6 -10,-8 -3,-2 -7,-3 -12,-3 -4,0 -8,1 -12,2 -3,2 -6,5 -8,9 -3,4 -4,8 -4,13l0 46 -11 0z"/>
  <path id="6" class="fil0" d="M1135 327c0,-1 0,-2 0,-3 0,-5 1,-9 3,-12 3,-3 5,-6 9,-7 3,-2 7,-3 10,-3 3,0 5,1 8,1 3,1 5,3 7,4 2,2 4,4 6,7 1,3 2,6 2,9l-11 0c0,-3 -2,-6 -4,-8 -2,-2 -5,-3 -8,-3 -3,0 -6,1 -8,3 -2,2 -4,5 -4,8 0,1 0,1 1,2 0,1 0,2 0,2 1,3 3,5 7,7 5,2 9,3 13,5 5,2 8,4 11,7 3,3 5,8 5,14 0,1 0,2 -1,4 0,5 -2,9 -4,12 -3,3 -6,5 -10,7 -3,1 -7,2 -10,2 -5,0 -9,-1 -13,-3 -4,-2 -7,-5 -9,-9 -2,-4 -3,-8 -3,-13l11 0c0,4 1,8 4,11 3,3 7,4 10,4 4,0 7,-2 10,-4 3,-3 4,-6 4,-10 0,-3 -1,-6 -3,-8 -2,-3 -6,-5 -10,-6 -6,-2 -11,-4 -16,-7 -4,-3 -6,-7 -7,-13z"/>
  <path id="7" class="fil0" d="M1287 383l0 -107 28 0c8,0 16,1 22,2 6,2 11,5 15,10 3,4 5,10 6,18 0,1 0,2 0,3 0,6 -1,11 -5,16 -3,5 -7,8 -13,11 -5,3 -12,4 -19,4l-23 0 0 43 -11 0zm11 -98l0 45 22 0c9,0 16,-2 21,-6 4,-5 6,-10 6,-18 0,-7 -3,-13 -8,-16 -6,-3 -13,-5 -23,-5l-18 0z"/>
  <polygon id="8" class="fil0" points="1406,383 1373,304 1384,304 1412,370 1439,304 1451,304 1417,383 "/>
  <polygon id="9" class="fil0" points="1480,383 1480,314 1463,314 1463,304 1480,304 1480,276 1491,276 1491,304 1509,304 1509,314 1491,314 1491,383 "/>
  <polygon id="10" class="fil0" points="1535,383 1535,364 1547,364 1547,383 "/>
  <polygon id="11" class="fil0" points="1673,374 1717,373 1717,383 1662,383 1662,276 1673,276 "/>
  <polygon id="12" class="fil0" points="1746,383 1746,314 1729,314 1729,304 1746,304 1746,276 1757,276 1757,304 1775,304 1775,314 1757,314 1757,383 "/>
  <path id="13" class="fil0" d="M1793 340c0,-8 3,-14 7,-20 4,-6 9,-10 15,-13 6,-3 12,-5 18,-5 7,0 13,1 19,4 6,2 11,6 14,12l0 -42 11 0 0 107 -10 0 0 -15c-4,6 -8,10 -14,13 -5,3 -11,4 -19,4 -7,0 -13,-2 -19,-6 -7,-3 -12,-8 -16,-15 -4,-6 -6,-13 -6,-21 0,-1 0,-2 0,-3zm11 -1c0,1 0,2 0,4 0,6 1,11 4,15 2,5 6,9 11,12 5,3 10,5 16,5 5,0 10,-2 15,-4 5,-3 9,-7 12,-12 3,-5 5,-10 5,-17 0,-3 -1,-7 -3,-12 -3,-5 -6,-9 -11,-12 -5,-4 -11,-6 -18,-6 -4,0 -8,1 -13,3 -4,2 -8,5 -11,9 -4,4 -6,9 -7,15z"/>
  <polygon id="14" class="fil0" points="1911,383 1911,364 1922,364 1922,383 "/>
  <polygon class="fil0" points="199,273 115,403 324,327 324,273 "/>
  <polygon class="fil0" points="325,190 232,224 325,81 "/>
  <path class="fil0" d="M423 81c0,80 0,160 0,241 22,-17 43,-25 52,-63 5,-36 5,-72 0,-109 -9,-43 -30,-52 -52,-69z"/>
  <polygon class="fil0" points="310,0 52,403 0,403 258,0 "/>
 </g>
</svg>
